<svg xmlns="http://www.w3.org/2000/svg" width="200" height="200" viewBox="0 0 200 200">
    <g fill="none" fill-rule="evenodd">
        <rect width="200" height="200" rx="100"/>
        <g stroke-width="1.2">
            <g stroke-linecap="round">
                <path stroke="#D7E1EB" d="M161.247 104.427h14.276M19.589 104.444H48.14M162.894 78.373h12.629M19.589 78.373h3.843M48.14 78.373h30.199M149.717 52.045h25.806M19.589 52.045h69.73"/>
                <path stroke="#B6C3D0" d="M37.159 130.955H153.93m-126.654 0h5.49m-13.177 0h2.196m151.541 0h2.197m-12.08 0h5.49"/>
            </g>
            <g stroke="#B6C3D0" transform="translate(13 57.255)">
                <path stroke-linecap="round" d="M6.589 6.582l48.317 46.074 16.666-11.35m19.272-13.128l14.39-8.432 17.458-3.962m22.28-4.534l17.55-3.571"/>
                <ellipse cx="6.589" cy="6.716" fill="#F1F4F6" rx="6.589" ry="6.716"/>
                <ellipse cx="54.906" cy="52.791" fill="#F1F4F6" rx="6.589" ry="6.716"/>
                <ellipse cx="105.235" cy="19.88" fill="#F1F4F6" rx="6.589" ry="6.716"/>
                <ellipse cx="162.523" cy="7.813" fill="#F1F4F6" rx="6.589" ry="6.716"/>
            </g>
            <g stroke="#B6C3D0">
                <path fill="#F1F4F6" d="M142.3 108.117l3.993-3.993 6.206 6.205-3.994 3.994z"/>
                <path fill="#E6EBEE" d="M150.951 122.094l9.318-9.318 26.37 26.369a6.589 6.589 0 0 1-9.319 9.318l-26.369-26.37z"/>
                <path fill="#F1F4F6" d="M145.453 115.181l7.904-7.904a1 1 0 0 1 1.414 0l5.498 5.499-9.318 9.318-5.498-5.499a1 1 0 0 1 0-1.414z"/>
            </g>
            <path fill="#E6EBEE" stroke="#B6C3D0" d="M120.309 44.783c19.407 0 35.14 16.208 35.14 36.201 0 19.993-15.733 36.201-35.14 36.201-19.408 0-35.14-16.208-35.14-36.2 0-19.994 15.732-36.202 35.14-36.202zm0 7.342c-15.636 0-28.312 12.92-28.312 28.86 0 15.938 12.676 28.859 28.312 28.859 15.635 0 28.31-12.921 28.31-28.86s-12.675-28.86-28.31-28.86z"/>
            <g stroke="#D7E1EB" stroke-linecap="round">
                <path d="M118.529 58.202c12.53-.842 23.426 8.608 24.335 21.106m-5.994 17.016a22.566 22.566 0 0 1-15.05 7.137c-12.53.84-23.426-8.609-24.335-21.107M142.815 84.023a20.146 20.146 0 0 1-.53 3.18M97.803 77.795c.134-1.035.347-2.076.642-3.117"/>
            </g>
        </g>
    </g>
</svg>
